<svg width="97" height="20" viewBox="0 0 97 20" fill="none" xmlns="http://www.w3.org/2000/svg">
<path fill-rule="evenodd" clip-rule="evenodd" d="M6.4212 1.72682C6.23602 1.82818 1.62715 5.90447 0.799739 6.69895C0.0617684 7.40746 0.704688 8.61088 1.69396 8.37254C1.81971 8.34222 3.02005 7.3367 4.36138 6.13819L6.80022 3.95891L7.0779 4.17552C7.23071 4.29474 8.9735 5.8801 10.9509 7.69861L14.5461 11.005L14.552 14.3586H13.9616L13.97 12.7999L10.4099 9.42728C6.76067 5.97022 6.59664 5.8425 6.06009 6.03833C5.83427 6.1208 1.6979 9.7359 0.801116 10.6345L0.481329 10.955V15.6957L0.768941 15.9718C1.38854 16.5667 1.63768 16.4572 3.51232 14.7658C4.41589 13.9506 5.31179 13.1431 5.50336 12.9712L5.85149 12.6588L7.79166 14.4533C9.66286 16.1843 9.74591 16.248 10.1323 16.248C10.7049 16.248 11.1068 15.8535 11.1113 15.2869L11.1146 14.8782L8.82364 12.7247C7.56358 11.5402 6.40772 10.5067 6.25491 10.4278C5.67339 10.1278 5.61406 10.1665 3.06009 12.5142L2.44089 13.0833L2.49845 11.7441L6.31631 8.31803L7.26082 9.15918C7.78035 9.62179 9.03775 10.8027 10.0552 11.7835L11.9049 13.5667L11.9445 15.6969L12.5872 16.248H14.2156C16.6463 16.248 16.5199 16.4294 16.5199 12.9416C16.5199 9.88951 16.6476 10.2388 14.9788 8.72699C14.284 8.09755 12.343 6.31815 10.6653 4.77284C7.05605 1.44823 7.00184 1.40941 6.4212 1.72682Z" fill="#333333"/>
<path d="M25.0042 0.199219L23.4144 6.85211H26.8009C29.0658 6.85211 29.7845 5.42578 29.7845 4.44829C29.7845 3.45086 28.9787 2.62299 27.5196 2.62299H25.9734L26.2565 1.44601H30.0132L30.3072 0.199219H25.0042ZM27.3127 3.86978C27.8245 3.86978 28.1729 4.17898 28.1729 4.58793C28.1729 5.15647 27.6938 5.60532 26.9098 5.60532H25.2547L25.6793 3.86978H27.3127Z" fill="#333333"/>
<path d="M33.1385 1.91481C31.3419 1.91481 30.3619 3.52068 30.3619 4.97693C30.3619 6.25365 31.1676 6.9718 32.3654 6.9718C32.997 6.9718 33.4979 6.73242 33.9443 6.25365L33.7919 6.85211H35.1857L36.3508 2.0345H34.957L34.8154 2.67286C34.467 2.19409 33.8354 1.91481 33.1385 1.91481ZM33.3563 3.04191C33.9117 3.04191 34.3581 3.28129 34.5868 3.60047L34.1839 5.27616C33.9008 5.60532 33.4652 5.8447 32.9752 5.8447C32.311 5.8447 31.8101 5.40583 31.8101 4.7176C31.8101 3.82988 32.4525 3.04191 33.3563 3.04191Z" fill="#333333"/>
<path d="M37.9399 6.85211L38.4299 4.89714H40.5968L40.1177 6.85211H41.5006L42.6984 2.0345H41.3155L40.8799 3.78001H38.7021L39.1377 2.0345H37.7548L36.557 6.85211H37.9399Z" fill="#333333"/>
<path d="M48.0024 6.85211L46.4888 4.21888L49.1022 2.0345H47.3382L44.899 4.09919L45.4108 2.0345H44.0279L42.8628 6.85211H44.2457L44.5397 5.61529L45.3564 4.96696L46.3255 6.85211H48.0024Z" fill="#333333"/>
<path d="M27.8426 17.2639L25.6104 13.733L29.2473 10.611H27.2546L24.0859 13.4637L24.7719 10.611H23.2257L21.625 17.2639H23.1712L23.6721 15.2192L24.4235 14.5409L26.0241 17.2639H27.8426Z" fill="#333333"/>
<path d="M31.7271 17.3836C33.5129 17.3836 34.4929 15.7678 34.4929 14.3215C34.4929 13.0448 33.6763 12.3266 32.5003 12.3266C31.8687 12.3266 31.3569 12.566 30.9105 13.0448L31.0629 12.4463H29.68L28.0685 19.0992H29.4513L30.0502 16.6256C30.3987 17.1043 31.0085 17.3836 31.7271 17.3836ZM31.4985 16.2565C30.9431 16.2565 30.4967 16.0271 30.268 15.7079L30.6709 14.0322C30.9649 13.7031 31.3896 13.4537 31.8796 13.4537C32.5438 13.4537 33.0447 13.8926 33.0447 14.5808C33.0447 15.4686 32.4131 16.2565 31.4985 16.2565Z" fill="#333333"/>
<path d="M37.7924 17.3836C38.4457 17.3836 39.1426 17.2041 39.6544 16.8849L39.2188 16.0171C38.8922 16.2466 38.3477 16.3762 37.8904 16.3762C36.9213 16.3762 36.453 15.7877 36.453 15.3788C36.453 15.3489 36.453 15.279 36.453 15.2591H40.3622C40.4166 15.0995 40.4711 14.7604 40.4711 14.4811C40.4711 13.1346 39.4475 12.3266 38.1082 12.3266C36.355 12.3266 35.0701 13.6532 35.0701 15.2192C35.0701 16.5657 36.1372 17.3836 37.7924 17.3836ZM36.5946 14.4013C36.7144 13.8727 37.2806 13.334 38.021 13.334C38.8595 13.334 39.2297 13.8228 39.2297 14.3016C39.2297 14.3215 39.2297 14.3813 39.2297 14.4013H36.5946Z" fill="#333333"/>
<path d="M40.1088 18.4908H41.4808L41.7748 17.2639H45.0089L44.7149 18.4908H46.1086L46.664 16.1568H46.0869L46.9798 12.4463H42.7222L41.8293 14.7803C41.3828 15.9473 41.0671 16.1269 40.6424 16.2067L40.1088 18.4908ZM43.6586 13.5535H45.3137L44.704 16.1568H42.2648C42.6568 15.8775 42.9726 15.4486 43.1795 14.8601L43.6586 13.5535Z" fill="#333333"/>
<path d="M48.6013 17.2639L51.5522 14.2417L50.8335 17.2639H52.2164L53.3706 12.4463H51.9768L49.1022 15.3588L49.8099 12.4463H48.427L47.2728 17.2639H48.6013Z" fill="#333333"/>
<path d="M55.9522 17.2639L56.8342 13.5535H58.3042L58.5764 12.4463H54.2426L53.9704 13.5535H55.4404L54.5584 17.2639H55.9522Z" fill="#333333"/>
<path d="M60.3785 18.4908H61.9139L62.2079 17.2639H66.7377L66.4437 18.4908H67.9899L68.5888 16.0171H67.9246L69.2312 10.611H64.0699L62.8285 14.0123C62.1752 15.7678 61.6852 16.0271 60.9339 16.1269L60.3785 18.4908ZM65.1697 11.8578H67.3801L66.3783 16.0171H63.0028C63.5472 15.6281 64.0154 15.0097 64.3421 14.112L65.1697 11.8578Z" fill="#333333"/>
<path d="M70.5506 17.2639L71.0406 15.309H73.2075L72.7284 17.2639H74.1113L75.3091 12.4463H73.9262L73.4906 14.1918H71.3128L71.7484 12.4463H70.3655L69.1677 17.2639H70.5506Z" fill="#333333"/>
<path d="M77.5315 11.9277C77.9562 11.9277 78.468 11.6185 78.468 11.0699C78.468 10.7108 78.1522 10.4215 77.7166 10.4215C77.3028 10.4215 76.7911 10.7307 76.7911 11.2793C76.7911 11.6384 77.1068 11.9277 77.5315 11.9277ZM76.8564 17.2639L78.0215 12.4463H76.6386L75.4735 17.2639H76.8564Z" fill="#333333"/>
<path d="M83.1712 17.2639L84.369 12.4463H79.4254L78.2276 17.2639H79.6105L80.5361 13.5535H82.703L81.7883 17.2639H83.1712Z" fill="#333333"/>
<path d="M87.7457 17.3836C89.5315 17.3836 90.5115 15.7678 90.5115 14.3215C90.5115 13.0448 89.6948 12.3266 88.5188 12.3266C87.8873 12.3266 87.3755 12.566 86.929 13.0448L87.0815 12.4463H85.6986L84.087 19.0992H85.4699L86.0688 16.6256C86.4172 17.1043 87.027 17.3836 87.7457 17.3836ZM87.517 16.2565C86.9617 16.2565 86.5152 16.0271 86.2866 15.7079L86.6895 14.0322C86.9835 13.7031 87.4081 13.4537 87.8981 13.4537C88.5624 13.4537 89.0633 13.8926 89.0633 14.5808C89.0633 15.4686 88.4317 16.2565 87.517 16.2565Z" fill="#333333"/>
<path d="M93.6803 17.3836C95.4661 17.3836 96.7292 16.0171 96.7292 14.521C96.7292 13.2642 95.7927 12.3266 94.1158 12.3266C92.3409 12.3266 91.0778 13.6931 91.0778 15.1992C91.0778 16.456 92.0034 17.3836 93.6803 17.3836ZM93.7347 16.2565C92.9616 16.2565 92.5042 15.8276 92.5042 15.1294C92.5042 14.2716 93.1358 13.4537 94.0723 13.4537C94.8345 13.4537 95.2918 13.8826 95.2918 14.5808C95.2918 15.4486 94.6603 16.2565 93.7347 16.2565Z" fill="#333333"/>
</svg>
